<?xml version="1.0" encoding="UTF-8" standalone="no"?>
<svg width="27px" height="27px" viewBox="0 0 27 27" version="1.1" xmlns="http://www.w3.org/2000/svg" xmlns:xlink="http://www.w3.org/1999/xlink">
    <!-- Generator: Sketch 3.8.3 (29802) - http://www.bohemiancoding.com/sketch -->
    <title>icon-facebook</title>
    <desc>Created with Sketch.</desc>
    <defs></defs>
    <g id="Page-1" stroke="none" stroke-width="1" fill="none" fill-rule="evenodd">
        <g id="Desktop-HD" transform="translate(-484.000000, -1890.000000)" fill="#FFFFFF">
            <g id="Group-7" transform="translate(481.000000, 1766.000000)">
                <path d="M27,124 L6,124 C4.35,124 3,125.35 3,127 L3,148 C3,149.6515 4.35,151 6,151 L16.5,151 L16.5,140.5 L13.5,140.5 L13.5,136.7875 L16.5,136.7875 L16.5,133.7125 C16.5,130.4665 18.318,128.1865 22.149,128.1865 L24.8535,128.1895 L24.8535,132.097 L23.058,132.097 C21.567,132.097 21,133.216 21,134.254 L21,136.789 L24.852,136.789 L24,140.5 L21,140.5 L21,151 L27,151 C28.65,151 30,149.6515 30,148 L30,127 C30,125.35 28.65,124 27,124 L27,124 Z" id="icon-facebook"></path>
            </g>
        </g>
    </g>
</svg>