<?xml version="1.0" encoding="UTF-8" standalone="no"?>
<svg width="30px" height="30px" viewBox="0 0 30 30" version="1.1" xmlns="http://www.w3.org/2000/svg" xmlns:xlink="http://www.w3.org/1999/xlink">
    <!-- Generator: Sketch 3.8.3 (29802) - http://www.bohemiancoding.com/sketch -->
    <title>icon-whatsapp</title>
    <desc>Created with Sketch.</desc>
    <defs></defs>
    <g id="Page-1" stroke="none" stroke-width="1" fill="none" fill-rule="evenodd">
        <g id="Desktop-HD" transform="translate(-484.000000, -1833.000000)" fill="#FFFFFF">
            <g id="Group-7" transform="translate(481.000000, 1766.000000)">
                <path d="M33,81.6136667 C33,89.6846667 26.407,96.227333 18.2726667,96.227333 C15.6903333,96.227333 13.2643333,95.567332 11.1536667,94.408999 L3,97 L5.65833333,89.1593333 C4.31733333,86.9573333 3.545,84.3746667 3.545,81.6136667 C3.545,73.5426667 10.1386667,67 18.2726667,67 C26.4076667,67 33,73.5426667 33,81.6136667 L33,81.6136667 Z M18.2726667,69.3273333 C11.4446667,69.3273333 5.890667,74.839 5.890667,81.6136667 C5.890667,84.302 6.767,86.7916667 8.24933333,88.817 L6.70233333,93.38 L11.4606667,91.8676667 C13.4156667,93.15133 15.7576667,93.899999 18.273,93.899999 C25.1,93.899999 30.655,88.3889967 30.655,81.6143333 C30.655,74.8396667 25.1003333,69.3273333 18.2726667,69.3273333 L18.2726667,69.3273333 Z M25.7096667,84.9793333 C25.6186667,84.8303333 25.37833,84.7403333 25.0176667,84.5613333 C24.6563333,84.3823333 22.881,83.5153333 22.551,83.3963333 C22.22,83.277 21.9786667,83.217 21.7383333,83.5753333 C21.498,83.934 20.806,84.7403333 20.595,84.9793333 C20.3843333,85.219 20.174,85.2489967 19.8126667,85.0696667 C19.452,84.8906667 18.289,84.512 16.91,83.292 C15.837,82.3426667 15.1123333,81.1706667 14.9016667,80.8116667 C14.6913333,80.4533333 14.8796667,80.2596667 15.06,80.0813333 C15.2226667,79.9206667 15.4213333,79.6629967 15.6016667,79.454 C15.7826667,79.2446667 15.8426667,79.0956633 15.9623333,78.8563333 C16.0833333,78.6173333 16.023,78.40833 15.9323333,78.2286667 C15.8423333,78.0496667 15.1196667,76.287 14.819,75.5696667 C14.5183333,74.853 14.218,74.9723333 14.007,74.9723333 C13.7966667,74.9723333 13.5556667,74.9423333 13.315,74.9423333 C13.0743333,74.9423333 12.683,75.0319967 12.352,75.3903333 C12.0213333,75.749 11.089,76.6156667 11.089,78.378 C11.089,80.1406667 12.382,81.8436633 12.563,82.08233 C12.7433333,82.3209967 15.0596633,86.0556633 18.7296667,87.4899967 C22.4,88.9236667 22.4,88.4453333 23.062,88.3853333 C23.7233333,88.3256667 25.1973333,87.519 25.4993333,86.683 C25.7993333,85.8456667 25.7993333,85.1286667 25.7096667,84.9793333 L25.7096667,84.9793333 Z" id="icon-whatsapp"></path>
            </g>
        </g>
    </g>
</svg>