<?xml version="1.0" encoding="UTF-8" standalone="no"?>
<svg width="28px" height="23px" viewBox="0 0 28 23" version="1.1" xmlns="http://www.w3.org/2000/svg" xmlns:xlink="http://www.w3.org/1999/xlink">
    <!-- Generator: Sketch 3.8.3 (29802) - http://www.bohemiancoding.com/sketch -->
    <title>icon-twitter</title>
    <desc>Created with Sketch.</desc>
    <defs></defs>
    <g id="Page-1" stroke="none" stroke-width="1" fill="none" fill-rule="evenodd">
        <g id="Desktop-HD" transform="translate(-484.000000, -2105.000000)" fill="#FFFFFF">
            <g id="Group-7" transform="translate(481.000000, 1766.000000)">
                <path d="M27.774,345.155 C27.786,345.398 27.7905,345.644 27.7905,345.887 C27.7905,353.371999 22.095,362 11.6805,362 C8.481,362 5.5065,361.0625 3,359.454499 C3.444,359.506999 3.894,359.534 4.35,359.534 C7.005,359.534 9.4455,358.628 11.382,357.1115 C8.9055,357.065 6.813,355.43 6.093,353.18 C6.438,353.2445 6.7935,353.279 7.158,353.279 C7.6755,353.279 8.1765,353.2115 8.6505,353.0825 C6.06,352.560502 4.1085,350.273 4.1085,347.528 L4.1085,347.4575 C4.872,347.882 5.7465,348.137 6.6735,348.167 C5.154,347.15 4.1535,345.419 4.1535,343.4525 C4.1535,342.416 4.4325,341.4425 4.9215,340.6055 C7.713,344.033 11.8875,346.286 16.593,346.523 C16.497,346.1075 16.4475,345.677 16.4475,345.2315 C16.4475,342.1055 18.981,339.572 22.1085,339.572 C23.7375,339.572 25.209,340.2575 26.2425,341.3585 C27.531,341.1035 28.743,340.6325 29.838,339.9845 C29.415,341.306 28.5165,342.416 27.348,343.1165 C28.494,342.9785 29.583,342.677 30.6,342.2255 C29.841,343.3625 28.881,344.3585 27.774,345.155 L27.774,345.155 Z" id="icon-twitter"></path>
            </g>
        </g>
    </g>
</svg>