<?xml version="1.0" encoding="UTF-8" standalone="no"?>
<svg width="33px" height="19px" viewBox="0 0 33 19" version="1.1" xmlns="http://www.w3.org/2000/svg" xmlns:xlink="http://www.w3.org/1999/xlink">
    <!-- Generator: Sketch 3.8.3 (29802) - http://www.bohemiancoding.com/sketch -->
    <title>icon-360</title>
    <desc>Created with Sketch.</desc>
    <defs></defs>
    <g id="Page-1" stroke="none" stroke-width="1" fill="none" fill-rule="evenodd">
        <g id="Desktop-HD" transform="translate(-959.000000, -573.000000)" fill="#AFA19D">
            <g id="Group-2" transform="translate(875.000000, 569.000000)">
                <g id="icon-360" transform="translate(84.000000, 4.000000)">
                    <path d="M27.5851012,1.72676471 C27.5851012,2.22802941 27.9475418,2.61305882 28.4257622,2.61305882 C28.9051012,2.61305882 29.2552368,2.22802941 29.2552368,1.71502941 C29.2552368,1.26014706 28.9627113,0.817 28.4257622,0.817 C27.9123046,0.817 27.5851012,1.24841176 27.5851012,1.72676471 L27.5851012,1.72676471 Z M30.200491,1.70329412 C30.200491,2.70638235 29.3715757,3.43005882 28.4145757,3.43005882 C27.3871012,3.43005882 26.6510334,2.67173529 26.6510334,1.7385 C26.6398469,0.770058824 27.4335249,0 28.4257622,0 C29.4767283,0 30.200491,0.781794118 30.200491,1.70329412 L30.200491,1.70329412 Z" id="Fill-91"></path>
                    <path d="M9.54808422,5.30547059 L10.4167113,5.30547059 C10.7483893,5.30547059 11.0034402,5.21661765 11.1813046,5.03835294 C11.3602876,4.86064706 11.4492198,4.61252941 11.4492198,4.29623529 C11.4492198,4.04532353 11.3692368,3.83464706 11.2087113,3.66308824 C11.0487452,3.49208824 10.8155079,3.40658824 10.5095588,3.40658824 C10.2696096,3.40658824 10.0587452,3.47588235 9.87584693,3.61391176 C9.69406727,3.7525 9.60289778,3.93020588 9.60289778,4.14870588 L7.8113893,4.14870588 L7.80020286,4.11629412 C7.7783893,3.48314706 8.02840625,2.97014706 8.54857574,2.57729412 C9.06986388,2.18388235 9.70133846,1.98773529 10.4441181,1.98773529 C11.307152,1.98773529 11.9973554,2.185 12.514169,2.57952941 C13.0315418,2.97517647 13.2899486,3.534 13.2899486,4.25767647 C13.2899486,4.61811765 13.1780842,4.95061765 12.9537961,5.25405882 C12.7300673,5.55805882 12.43083,5.795 12.0555249,5.966 C12.4817283,6.12247059 12.8145249,6.35997059 13.0550334,6.67794118 C13.2955418,6.99702941 13.4157961,7.37758824 13.4157961,7.82129412 C13.4157961,8.54944118 13.1366944,9.12167647 12.5796096,9.538 C12.0225249,9.95488235 11.3110673,10.1627647 10.4441181,10.1627647 C9.69798252,10.1627647 9.04525371,9.96717647 8.48593168,9.576 C7.92716896,9.18538235 7.65701642,8.61817647 7.67491473,7.87605882 L7.68554185,7.84308824 L9.48823676,7.84308824 C9.48823676,8.09791176 9.58779608,8.31194118 9.78579608,8.48461765 C9.98491473,8.65729412 10.2254232,8.74391176 10.5095588,8.74391176 C10.8339656,8.74391176 11.0923724,8.65338235 11.2853385,8.47064706 C11.4788639,8.28902941 11.5750673,8.05991176 11.5750673,7.78329412 C11.5750673,7.39826471 11.47383,7.11717647 11.2719147,6.94002941 C11.0694402,6.764 10.7847452,6.67570588 10.4167113,6.67570588 L9.54808422,6.67570588 L9.54808422,5.30547059" id="Fill-92"></path>
                    <path d="M16.9143554,6.10794118 C16.6593046,6.10794118 16.4400503,6.14202941 16.2565927,6.21132353 C16.0725757,6.28061765 15.9277113,6.37617647 15.8219995,6.49911765 L15.8219995,6.96685294 C15.8219995,7.53908824 15.9154063,7.97888235 16.1033385,8.28455882 C16.2907113,8.59079412 16.5519147,8.74391176 16.8875079,8.74391176 C17.163813,8.74391176 17.3897791,8.61314706 17.5648469,8.35273529 C17.7393554,8.09176471 17.8266096,7.78217647 17.8266096,7.42285294 C17.8266096,7.02105882 17.742152,6.70085294 17.5726774,6.46447059 C17.4032029,6.22697059 17.1839486,6.10794118 16.9143554,6.10794118 L16.9143554,6.10794118 Z M17.2807113,1.98773529 C17.5933724,1.98773529 17.8719147,2.01455882 18.1163385,2.06708824 C18.3596435,2.11961765 18.6297961,2.20455882 18.9245588,2.32079412 L18.6186096,3.66308824 C18.3635588,3.58652941 18.1409486,3.52952941 17.9496605,3.49097059 C17.7583724,3.45297059 17.5391181,3.43397059 17.2913385,3.43397059 C16.8545079,3.43397059 16.503813,3.58764706 16.239813,3.895 C15.975813,4.20291176 15.8494063,4.65108824 15.8605927,5.24008824 L15.876813,5.26747059 C16.0367791,5.08585294 16.2498808,4.94391176 16.5161181,4.84164706 C16.7812368,4.7405 17.08383,4.68908824 17.4227791,4.68908824 C18.1325588,4.68908824 18.6846096,4.94502941 19.0800503,5.45579412 C19.475491,5.96711765 19.6729317,6.62094118 19.6729317,7.41782353 C19.6729317,8.20352941 19.411169,8.85791176 18.8893215,9.37929412 C18.3663554,9.90179412 17.6990842,10.1627647 16.8875079,10.1627647 C16.0166435,10.1627647 15.3141351,9.87720588 14.7788639,9.30608824 C14.2435927,8.73497059 13.9756774,7.95261765 13.9756774,6.95902941 L13.9756774,5.36023529 C13.9756774,4.31244118 14.2844232,3.48817647 14.9019147,2.888 C15.5188469,2.28782353 16.3114063,1.98773529 17.2807113,1.98773529 L17.2807113,1.98773529 Z" id="Fill-93"></path>
                    <path d="M23.8326096,5.11491176 C23.8326096,4.50747059 23.7526266,4.07047059 23.5921012,3.80502941 C23.4321351,3.53958824 23.2011351,3.40658824 22.8985418,3.40658824 C22.5925927,3.40658824 22.3627113,3.53958824 22.2072198,3.80502941 C22.0528469,4.07047059 21.9751012,4.50747059 21.9751012,5.11491176 L21.9751012,7.02497059 C21.9751012,7.64358824 22.0539656,8.0845 22.2100164,8.34826471 C22.3666266,8.61202941 22.5998639,8.74391176 22.909169,8.74391176 C23.2117622,8.74391176 23.4410842,8.61202941 23.5976944,8.34826471 C23.7543046,8.0845 23.8326096,7.64358824 23.8326096,7.02497059 L23.8326096,5.11491176 L23.8326096,5.11491176 Z M25.6733385,6.91041176 C25.6733385,7.98335294 25.4238808,8.79420588 24.9249656,9.34129412 C24.4260503,9.8895 23.7543046,10.1627647 22.909169,10.1627647 C22.0573215,10.1627647 21.3822198,9.8895 20.8827452,9.34129412 C20.3843893,8.79420588 20.1343724,7.98335294 20.1343724,6.91041176 L20.1343724,5.24008824 C20.1343724,4.16714706 20.3827113,3.35685294 20.877152,2.80920588 C21.3727113,2.26155882 22.0461351,1.98773529 22.8985418,1.98773529 C23.7470334,1.98773529 24.4215757,2.26267647 24.922169,2.812 C25.4227622,3.36132353 25.6733385,4.1705 25.6733385,5.24008824 L25.6733385,6.91041176 L25.6733385,6.91041176 Z" id="Fill-94"></path>
                    <path d="M16.571491,15.5319412 C8.56032151,15.5213235 1.94466049,12.8317059 1.78581303,9.51452941 C1.7013554,7.75367647 3.45650795,6.17052941 6.31744015,5.06964706 C6.44776218,5.01991176 6.53110117,4.90647059 6.53110117,4.78129412 C6.53110117,4.55944118 6.27772829,4.40688235 6.04225371,4.48679412 C2.27186388,5.76985294 -0.100220866,7.76876471 0.00325370995,10.0163529 C0.181677439,13.8761471 7.59157574,17.0072353 16.571491,17.0262353 L16.571491,15.5319412" id="Fill-95"></path>
                    <path d="M27.378152,4.95173529 C27.1326096,4.85282353 26.8523893,5.01041176 26.8523893,5.24847059 C26.8523893,5.36917647 26.9284571,5.48094118 27.0503893,5.53682353 C29.3609486,6.59747059 30.7995249,7.9895 30.8722368,9.51452941 C31.0025588,12.2337647 26.7539486,14.5305294 20.8061181,15.2765588 C20.4257791,15.3240588 20.137169,15.6420294 20.137169,16.0248235 C20.137169,16.473 20.5275757,16.8284118 20.9733554,16.7758824 C27.8491012,15.9605588 32.8041351,13.2435588 32.6553554,10.0163529 C32.5630673,8.02414706 30.5433554,6.22752941 27.378152,4.95173529" id="Fill-96"></path>
                    <path d="M14.7055927,14.3936176 L14.7055927,18.1086765 C14.7055927,18.4378235 15.0585249,18.6462647 15.3471351,18.4881176 L18.7343893,16.6305882 C19.0336266,16.4662941 19.0336266,16.0365588 18.7343893,15.8722647 L15.3471351,14.0141765 C15.0585249,13.8560294 14.7055927,14.0650294 14.7055927,14.3936176" id="Fill-97"></path>
                </g>
            </g>
        </g>
    </g>
</svg>