<?xml version="1.0" encoding="UTF-8" standalone="no"?>
<svg width="30px" height="24px" viewBox="0 0 30 24" version="1.1" xmlns="http://www.w3.org/2000/svg" xmlns:xlink="http://www.w3.org/1999/xlink">
    <!-- Generator: Sketch 3.8.3 (29802) - http://www.bohemiancoding.com/sketch -->
    <title>icon-youtube</title>
    <desc>Created with Sketch.</desc>
    <defs></defs>
    <g id="Page-1" stroke="none" stroke-width="1" fill="none" fill-rule="evenodd">
        <g id="Desktop-HD" transform="translate(-484.000000, -2052.000000)" fill="#FFFFFF">
            <g id="Group-7" transform="translate(481.000000, 1766.000000)">
                <path d="M18,286.899999 C3.258,286.899999 3,288.210999 3,298.449999 C3,308.688999 3.258,310 18,310 C32.742,310 33,308.688999 33,298.449999 C33,288.210999 32.742,286.899999 18,286.899999 L18,286.899999 Z M22.8075,298.950999 L16.0725,302.094997 C15.4830015,302.367999 15,302.061999 15,301.410999 L15,295.488999 C15,294.839499 15.4830015,294.531999 16.0725,294.804999 L22.8075,297.948999 C23.397,298.224999 23.397,298.674999 22.8075,298.950999 L22.8075,298.950999 Z" id="icon-youtube"></path>
            </g>
        </g>
    </g>
</svg>