<?xml version="1.0" encoding="UTF-8" standalone="no"?>
<svg width="30px" height="29px" viewBox="0 0 30 29" version="1.1" xmlns="http://www.w3.org/2000/svg" xmlns:xlink="http://www.w3.org/1999/xlink">
    <!-- Generator: Sketch 3.8.3 (29802) - http://www.bohemiancoding.com/sketch -->
    <title>icon-snapchat</title>
    <desc>Created with Sketch.</desc>
    <defs></defs>
    <g id="Page-1" stroke="none" stroke-width="1" fill="none" fill-rule="evenodd">
        <g id="Desktop-HD" transform="translate(-484.000000, -1941.000000)" fill="#FFFFFF">
            <g id="Group-7" transform="translate(481.000000, 1766.000000)">
                <path d="M18.1888758,203.164513 C18.1038501,203.164513 18.0227254,203.161408 17.9610261,203.158462 C17.9120647,203.162682 17.861511,203.164513 17.8108778,203.164513 C16.0246223,203.164513 14.8302824,202.320068 13.7762985,201.574421 C13.0208598,201.040782 12.3084116,200.536997 11.473759,200.398153 C11.0638365,200.330165 10.6560636,200.295693 10.2620636,200.295693 C9.55216301,200.295693 8.99113692,200.405796 8.58153295,200.485886 C8.32948121,200.535006 8.11214033,200.57728 7.94415891,200.57728 C7.76821629,200.57728 7.55445795,200.53827 7.46537207,200.234073 C7.39475618,199.994122 7.34412292,199.761655 7.29524113,199.537786 C7.17295702,198.978352 7.0842692,198.636896 6.87480991,198.604494 C4.63444734,198.258818 3.31073785,197.74962 3.04706276,197.132945 C3.01943738,197.068141 3.00399264,197.002938 3.00056932,196.938453 C2.99029937,196.754628 3.120067,196.593414 3.30126402,196.5634 C5.08043402,196.270428 6.66240497,195.33005 8.00346988,193.767505 C9.04232747,192.5578 9.55248146,191.401992 9.60725454,191.274374 C9.6096429,191.268642 9.61242933,191.262591 9.61529536,191.257098 C9.87379567,190.732614 9.92522505,190.279383 9.76862816,189.910381 C9.47995488,189.229618 8.52389383,188.926296 7.89137612,188.725594 C7.73406272,188.675837 7.58526781,188.628706 7.46672547,188.581656 C6.90601783,188.360175 5.98387151,187.892215 6.1067129,187.246323 C6.19619684,186.775338 6.81916109,186.447336 7.32262767,186.447336 C7.46242642,186.447336 7.58630276,186.471857 7.69059454,186.520818 C8.25950222,186.787359 8.77132806,186.922461 9.21150306,186.922461 C9.75891549,186.922461 10.0233071,186.714037 10.0872356,186.654805 C10.0714724,186.362788 10.0522063,186.054053 10.033577,185.762036 C10.033577,185.761717 10.033179,185.758215 10.033179,185.758215 C9.90468515,183.714175 9.7444261,181.170411 10.3950953,179.71168 C12.3425652,175.345198 16.4725993,175.005652 17.6916189,175.005652 C17.7241007,175.005652 18.2229497,175.000717 18.2229497,175.000717 C18.2454799,175.000318 18.2699208,175 18.2952375,175 C19.5176008,175 23.656233,175.339943 25.6048971,179.709053 C26.2555663,181.168739 26.095148,183.714653 25.9662561,185.760842 L25.9602056,185.858765 C25.9425317,186.136611 25.9262113,186.399569 25.9124384,186.654487 C25.9726251,186.709897 26.2145661,186.900966 26.7068074,186.920312 C27.1264425,186.90423 27.6086526,186.769765 28.139665,186.521137 C28.303825,186.444072 28.4855793,186.42807 28.608978,186.42807 C28.795509,186.42807 28.9853041,186.464373 29.1434933,186.530372 L29.1519321,186.533636 C29.6025363,186.693576 29.8976582,187.013219 29.9040271,187.349022 C29.9096796,187.662057 29.6770532,188.129937 28.5328689,188.581815 C28.4156799,188.628229 28.2661685,188.675678 28.1082182,188.725754 C27.4751432,188.926694 26.5198783,189.229857 26.231205,189.910222 C26.0743693,190.279223 26.1259579,190.732296 26.3845378,191.25662 C26.3874039,191.262353 26.3898718,191.268164 26.3926582,191.274215 C26.4722703,191.460825 28.3992799,195.854694 32.6986488,196.563002 C32.8797662,196.593175 33.0097726,196.754549 32.9994231,196.938055 C32.9956017,197.003973 32.9796793,197.069892 32.9518151,197.134298 C32.6899711,197.74755 31.3663412,198.256032 29.1253417,198.602185 C28.9150067,198.634667 28.8263985,198.97461 28.7052289,199.531098 C28.6550734,199.760938 28.604042,199.986241 28.5343815,200.223007 C28.4691792,200.445682 28.3241261,200.554511 28.0911812,200.554511 L28.0560723,200.554511 C27.9044114,200.554511 27.6895385,200.526966 27.4185391,200.473944 C26.9448474,200.381753 26.4135962,200.295931 25.7380084,200.295931 C25.344088,200.295931 24.9363947,200.330483 24.5259946,200.398392 C23.6922177,200.537235 22.9798491,201.040224 22.2257638,201.573307 C21.16971,202.319988 19.974972,203.164513 18.1888758,203.164513" id="icon-snapchat"></path>
            </g>
        </g>
    </g>
</svg>