<?xml version="1.0" encoding="UTF-8" standalone="no"?>
<svg width="30px" height="30px" viewBox="0 0 30 30" version="1.1" xmlns="http://www.w3.org/2000/svg" xmlns:xlink="http://www.w3.org/1999/xlink">
    <!-- Generator: Sketch 3.8.3 (29802) - http://www.bohemiancoding.com/sketch -->
    <title>icon-instagram</title>
    <desc>Created with Sketch.</desc>
    <defs></defs>
    <g id="Page-1" stroke="none" stroke-width="1" fill="none" fill-rule="evenodd">
        <g id="Desktop-HD" transform="translate(-484.000000, -1996.000000)" fill="#FFFFFF">
            <g id="Group-7" transform="translate(481.000000, 1766.000000)">
                <path d="M32.9097667,238.815517 C32.88485,237.57115 32.6491,236.340017 32.21255,235.174467 C31.8359,234.173567 31.2454667,233.266867 30.4824,232.5176 C29.7331333,231.754533 28.8264333,231.1641 27.8255333,230.78745 C26.6599833,230.3509 25.42885,230.11515 24.1844833,230.090233 C22.58455,230.0173 22.0737833,230 18,230 C13.9262167,230 13.41545,230.0173 11.8155167,230.090233 C10.5711467,230.11515 9.340015,230.3509 8.17446833,230.78745 C7.17356667,231.1641 6.26687,231.75455 5.5176,232.5176 C4.75454,233.266867 4.1641005,234.173567 3.7874495,235.174467 C3.35090367,236.340017 3.11515677,237.57115 3.09023408,238.815517 C3.01730005,240.41545 3,240.926217 3,245 C3,249.073783 3.01730005,249.584552 3.09023328,251.184483 C3.11515697,252.428848 3.35090367,253.659985 3.787451,254.825532 C4.16410133,255.826432 4.75454167,256.733128 5.51760167,257.482398 C6.26684333,258.245493 7.17354833,258.835936 8.17446667,259.212548 C9.34001333,259.649092 10.5711467,259.884844 11.8155167,259.909767 C13.41545,259.982818 13.9262167,260 18,260 C22.0737833,260 22.58455,259.982818 24.1844833,259.909767 C25.42885,259.884844 26.6599833,259.649095 27.8255333,259.212551 C29.8404167,258.433285 31.4332667,256.840442 32.2125333,254.82555 C32.6490833,253.660003 32.8848333,252.42887 32.90975,251.184502 C32.9827,249.58455 33,249.073783 33,245 C33,240.926217 32.9827,240.41545 32.9097667,238.815517 L32.9097667,238.815517 Z M30.2098833,251.0613 C30.1986333,252.012458 30.0238833,252.954597 29.6933167,253.846533 C29.18875,255.154747 28.15475,256.188755 26.8465333,256.693338 C25.9546,257.023897 25.01245,257.198633 24.0613,257.209902 C22.4797833,257.282 22.0054333,257.297268 18,257.297268 C13.9945667,257.297268 13.5202167,257.282003 11.9387,257.209887 C10.987545,257.198623 10.0454067,257.023893 9.15346667,256.693335 C8.50191667,256.452927 7.91255,256.069517 7.42871667,255.571302 C6.93049333,255.087465 6.547075,254.498092 6.30666667,253.846533 C5.97609167,252.954598 5.80135833,252.01246 5.7901,251.061303 C5.718,249.479567 5.70273333,249.005233 5.70273333,245 C5.70273333,240.994767 5.718,240.520433 5.79011667,238.9387 C5.80138167,237.98755 5.97611,237.0454 6.30666667,236.153467 C6.54707167,235.501917 6.930485,234.91255 7.42869833,234.428717 C7.912535,233.9305 8.50191,233.547083 9.15346667,233.306667 C10.0454067,232.9761 10.9875433,232.801367 11.9387017,232.7901 C13.5204333,232.718 13.9947667,232.702733 18,232.702733 C22.0052333,232.702733 22.4795667,232.718 24.0613,232.790117 C25.01245,232.801383 25.9546,232.976117 26.8465333,233.306683 C27.4980833,233.547083 28.08745,233.9305 28.5712833,234.428717 C29.0695,234.91255 29.4529167,235.501917 29.6933333,236.153467 C30.0239,237.0454 30.1986333,237.98755 30.2099,238.9387 C30.2820167,240.520367 30.2972833,240.994867 30.2972833,245 C30.2972833,249.005133 30.282,249.479567 30.2098833,251.0613 L30.2098833,251.0613 Z M18,237.297267 C13.7458967,237.297267 10.2972667,240.7459 10.2972667,245 C10.2972667,249.254102 13.7458967,252.702733 18,252.702733 C22.2541,252.702733 25.7027333,249.254102 25.7027333,245 C25.7026833,240.745917 22.2540833,237.297317 18,237.297267 L18,237.297267 Z M18,250 C15.2385767,250 13,247.761425 13,245 C13,242.238583 15.2385767,240 18,240 C20.7614167,240 23,242.238583 23,245 C23,247.761425 20.7614167,250 18,250 L18,250 Z M27.8070333,236.993 C27.8070333,237.987117 27.00115,238.793 26.0070333,238.793 C25.0129167,238.793 24.2070333,237.987117 24.2070333,236.993 C24.2070333,235.998883 25.0129167,235.193 26.0070333,235.193 C27.00115,235.193 27.8070333,235.998883 27.8070333,236.993 L27.8070333,236.993 Z" id="icon-instagram"></path>
            </g>
        </g>
    </g>
</svg>