<?xml version="1.0" encoding="UTF-8"?>
<svg width="167px" height="167px" viewBox="0 0 167 167" version="1.1" xmlns="http://www.w3.org/2000/svg" xmlns:xlink="http://www.w3.org/1999/xlink">
    <!-- Generator: Sketch 41.2 (35397) - http://www.bohemiancoding.com/sketch -->
    <title>icon-play</title>
    <desc>Created with Sketch.</desc>
    <defs></defs>
    <g id="Page-1" stroke="none" stroke-width="1" fill="none" fill-rule="evenodd">
        <g id="Modelo-de-página" transform="translate(-870.000000, -897.000000)" fill="#FFFFFF">
            <g id="icon-play" transform="translate(870.000000, 897.000000)">
                <path d="M83.5,160.7375 C40.91166,160.7375 6.2625,126.08834 6.2625,83.5 C6.2625,40.91166 40.91166,6.2625 83.5,6.2625 C126.08834,6.2625 160.7375,40.91166 160.7375,83.5 C160.7375,126.08834 126.08834,160.7375 83.5,160.7375 M83.5,0 C37.38462,0 0,37.38462 0,83.5 C0,129.61538 37.38462,167 83.5,167 C129.61538,167 167,129.61538 167,83.5 C167,37.38462 129.61538,0 83.5,0" id="Fill-3"></path>
                <path d="M121.705258,80.553118 L61.902558,50.479758 C59.547858,49.297398 56.778998,51.017498 56.778998,53.662778 L56.778998,113.335218 C56.778998,115.980498 59.547858,117.703938 61.902558,116.521578 L121.705258,86.448218 C124.203578,85.192378 124.203578,81.808958 121.705258,80.553118" id="Fill-5"></path>
            </g>
        </g>
    </g>
</svg>