<?xml version="1.0" encoding="UTF-8" standalone="no"?>
<svg width="90px" height="89px" viewBox="0 0 90 89" version="1.1" xmlns="http://www.w3.org/2000/svg" xmlns:xlink="http://www.w3.org/1999/xlink" xmlns:sketch="http://www.bohemiancoding.com/sketch/ns">
    <!-- Generator: Sketch 3.4.2 (15855) - http://www.bohemiancoding.com/sketch -->
    <title>rocket</title>
    <desc>Created with Sketch.</desc>
    <defs></defs>
    <g id="Page-1" stroke="none" stroke-width="1" fill="none" fill-rule="evenodd" sketch:type="MSPage">
        <g id="Desktop-Copy" sketch:type="MSArtboardGroup" transform="translate(-1201.000000, -1184.000000)" fill="#F3F3F0">
            <g id="links" sketch:type="MSLayerGroup" transform="translate(0.000000, 1122.000000)">
                <g id="rocket" transform="translate(1201.000000, 62.000000)" sketch:type="MSShapeGroup">
                    <g id="Group">
                        <path d="M60.125,39.2727273 C53.9929,39.2727273 49,34.2747273 49,28.1363636 C49,21.998 53.9929,17 60.125,17 C66.2571,17 71.25,21.998 71.25,28.1363636 C71.25,34.2747273 66.2571,39.2727273 60.125,39.2727273 L60.125,39.2727273 Z M60.125,21.4545455 C56.44485,21.4545455 53.45,24.4524545 53.45,28.1363636 C53.45,31.8202727 56.44485,34.8181818 60.125,34.8181818 C63.80515,34.8181818 66.8,31.8202727 66.8,28.1363636 C66.8,24.4524545 63.80515,21.4545455 60.125,21.4545455 L60.125,21.4545455 Z" id="Shape"></path>
                        <path d="M2.22675249,88.3911818 C1.64825249,88.3911818 1.07865249,88.164 0.651452493,87.7408182 C0.0418024928,87.1305455 -0.162897507,86.2173636 0.135252493,85.4066364 C6.98380249,66.5594545 14.1839025,57 21.5308525,57 C23.9561025,57 26.2211525,58.0423636 28.2726025,60.0914545 C31.5122025,63.3343636 31.6279025,66.5639091 31.1562025,68.7020909 C29.6699025,75.4195455 20.1914025,81.9989091 2.98770249,88.262 C2.73850249,88.3510909 2.48040249,88.3956364 2.22675249,88.3956364 L2.22675249,88.3911818 Z M21.5353025,61.4500909 C19.3325525,61.4500909 16.7382025,63.3833636 14.0370525,67.0405455 C11.3804025,70.6353636 8.71040249,75.7580909 6.08045249,82.3062727 C12.0212025,79.9141818 16.7960525,77.4864545 20.3160025,75.0676364 C25.0641525,71.8024545 26.4703525,69.2767273 26.8130025,67.7354545 C27.1556525,66.1941818 26.6038525,64.7197273 25.1264525,63.2408182 C23.9249525,62.0380909 22.7501525,61.4545455 21.5308525,61.4545455 L21.5353025,61.4500909 Z" id="Shape"></path>
                        <path d="M87.3229817,0.00445454545 C75.7752317,0.00445454545 65.4868317,1.96445455 56.7336817,5.831 C49.5202317,9.02045455 43.3436317,13.4928182 38.3729817,19.1322727 C37.4473817,20.1835455 36.5885317,21.2481818 35.7919817,22.3172727 C31.9560817,22.5711818 28.0311817,24.0990909 24.1151817,26.8609091 C20.7999317,29.1950909 17.4713317,32.4290909 14.2139317,36.4693636 C8.74043171,43.2580909 5.37623171,49.9532727 5.23383171,50.2339091 C4.74878171,51.2094545 5.03803171,52.3943636 5.91913171,53.0313636 C6.31073171,53.3164545 6.76908171,53.4545455 7.22298171,53.4545455 C7.79258171,53.4545455 8.36218171,53.2362727 8.79383171,52.8086364 C8.81608171,52.7863636 10.9431817,50.6927273 14.5699317,48.6391818 C17.5603317,46.9464545 22.1705317,44.9552727 27.7463817,44.6033636 C29.1570317,48.216 33.1931817,52.5369091 35.1289317,54.4746364 C37.0646817,56.4123636 41.3811817,60.4526364 44.9901317,61.8647273 C44.6385817,67.4462727 42.6494317,72.0611818 40.9584317,75.0546364 C38.9025317,78.6895455 36.8154817,80.8143636 36.7976817,80.8321818 C36.0278317,81.6028182 35.9299317,82.8233636 36.5662817,83.7098182 C36.9979317,84.3067273 37.6743317,84.6363636 38.3729817,84.6363636 C38.7111817,84.6363636 39.0493817,84.5606364 39.3653317,84.4002727 C39.6456817,84.2577273 46.3340317,80.8900909 53.1158317,75.411 C57.1519817,72.1502727 60.3826817,68.8182727 62.7144817,65.4996364 C65.4734817,61.5751818 66.9953817,57.6507273 67.2534817,53.8109091 C68.3170317,53.018 69.3805817,52.1582727 70.4352317,51.2272727 C76.0689317,46.2515455 80.5367317,40.0686364 83.7229317,32.8478182 C87.5855317,24.0901818 89.5435317,13.7868182 89.5435317,2.22727273 L89.5435317,0 L87.3185317,0 L87.3229817,0.00445454545 Z M14.3741317,43.6946364 C18.6149817,37.534 25.0986317,29.8944545 32.4055317,27.4934545 C29.5174817,32.5582727 28.0222817,37.2088182 27.4838317,40.1577273 C22.3262817,40.474 17.8807317,41.9751818 14.3741317,43.6946364 L14.3741317,43.6946364 Z M45.9068317,75.2417273 C47.6245317,71.7315455 49.1241817,67.2859091 49.4356817,62.1275455 C52.3771317,61.5885455 57.0273817,60.0918182 62.0825817,57.2052727 C59.6795817,64.5062727 52.0522817,70.9965455 45.9023817,75.2417273 L45.9068317,75.2417273 Z M67.4937817,47.8908182 C58.2377817,56.0649091 48.6524817,57.9135455 47.2729817,57.9135455 C47.2640817,57.9135455 46.3518317,57.8957273 43.8954317,56.1629091 C42.1821817,54.9557273 40.1841317,53.2362727 38.2795317,51.3297273 C36.3749317,49.4231818 34.6572317,47.4230909 33.4512817,45.7080909 C31.7202317,43.2491818 31.7024317,42.336 31.7024317,42.3270909 C31.7024317,40.9461818 33.5491817,31.3510909 41.7149317,22.0856364 C51.4871317,11.0027273 66.4435817,4.94009091 85.0757317,4.49018182 C84.6262817,23.1413636 78.5742817,38.1130909 67.4982317,47.8952727 L67.4937817,47.8908182 Z" id="Shape"></path>
                    </g>
                </g>
            </g>
        </g>
    </g>
</svg>