<?xml version="1.0" encoding="utf-8"?>
<!-- Generator: Adobe Illustrator 16.0.0, SVG Export Plug-In . SVG Version: 6.00 Build 0)  -->
<!DOCTYPE svg PUBLIC "-//W3C//DTD SVG 1.1//EN" "http://www.w3.org/Graphics/SVG/1.1/DTD/svg11.dtd">
<svg version="1.1" id="Layer_1" xmlns:sketch="http://www.bohemiancoding.com/sketch/ns"
	 xmlns="http://www.w3.org/2000/svg" xmlns:xlink="http://www.w3.org/1999/xlink" x="0px" y="0px" width="89px" height="89px"
	 viewBox="0 0 89 89" enable-background="new 0 0 89 89" xml:space="preserve">
<title>gift</title>
<desc>Created with Sketch.</desc>
<path fill-rule="evenodd" clip-rule="evenodd" fill="#F3F3F0" d="M80.143,56.595c0-9.538,0-19.019,0-28.58
	c-0.98,0.296-1.933,0.58-2.881,0.873c-12.483,3.854-24.965,7.71-37.453,11.55c-0.442,0.137-0.575,0.311-0.573,0.774
	c0.012,12.123-0.039,24.245,0.042,36.366c0.022,3.376-1.453,5.746-4.111,7.538c-2.165,1.458-4.636,2.191-7.139,2.793
	c-6.244,1.502-12.21,0.581-17.894-2.259c-2.065-1.033-3.757-2.593-4.548-4.859c-0.95-2.726-0.367-5.176,1.562-7.311
	c1.582-1.747,3.596-2.799,5.781-3.569c3.311-1.166,6.707-1.834,10.231-1.71c2.936,0.104,5.781,0.634,8.509,1.747
	c0.191,0.077,0.385,0.155,0.579,0.23c0.033,0.012,0.074,0.006,0.184,0.014c0-0.238,0-0.475,0-0.709c0-16.726,0-33.451,0-50.175
	c0-2.95,1.321-4.759,4.138-5.626C51.084,9.212,65.602,4.747,80.12,0.287c2.434-0.748,4.647-0.013,6.009,1.966
	c0.635,0.922,0.856,1.959,0.856,3.063c-0.004,12.823-0.002,25.646-0.002,38.469c0,6.838-0.032,13.676,0.017,20.513
	c0.021,2.774-1.154,4.865-3.245,6.547c-2.193,1.766-4.801,2.6-7.459,3.293c-2.371,0.619-4.791,0.98-7.245,0.823
	c-4.254-0.268-8.354-1.181-12.015-3.468c-1.918-1.198-3.431-2.807-3.946-5.122c-0.557-2.5,0.096-4.669,1.81-6.548
	c1.672-1.835,3.811-2.893,6.107-3.674c3.213-1.09,6.505-1.716,9.913-1.59c2.915,0.108,5.743,0.646,8.456,1.735
	C79.618,56.392,79.861,56.485,80.143,56.595z"/>
</svg>
