<?xml version="1.0" encoding="UTF-8" standalone="no"?>
<svg width="89px" height="89px" viewBox="0 0 89 89" version="1.1" xmlns="http://www.w3.org/2000/svg" xmlns:xlink="http://www.w3.org/1999/xlink" xmlns:sketch="http://www.bohemiancoding.com/sketch/ns">
    <!-- Generator: Sketch 3.4.2 (15855) - http://www.bohemiancoding.com/sketch -->
    <title>gift</title>
    <desc>Created with Sketch.</desc>
    <defs></defs>
    <g id="Page-1" stroke="none" stroke-width="1" fill="none" fill-rule="evenodd" sketch:type="MSPage">
        <g id="Desktop-Copy" sketch:type="MSArtboardGroup" transform="translate(-636.000000, -1183.000000)" fill="#F3F3F0">
            <g id="links" sketch:type="MSLayerGroup" transform="translate(0.000000, 1122.000000)">
                <g id="gift" transform="translate(636.000000, 61.000000)" sketch:type="MSShapeGroup">
                    <path d="M86.6578947,18.7368421 L72.6005789,18.7368421 C74.0761053,16.7788421 74.9473684,14.3430526 74.9473684,11.7105263 C74.9473684,5.25568421 69.6916842,0 63.2368421,0 C56.7257895,0 51.264,5.15731579 48.5893158,8.23484211 C46.9685789,10.0944737 45.5726842,12.0899474 44.5,14.0198421 C43.4273158,12.0899474 42.0314211,10.0991579 40.4106842,8.23484211 C37.736,5.162 32.2742105,0 25.7631579,0 C19.3083158,0 14.0526316,5.25568421 14.0526316,11.7105263 C14.0526316,14.3430526 14.9285789,16.7788421 16.3994211,18.7368421 L2.34210526,18.7368421 C1.04926316,18.7368421 7.10542736e-15,19.7861053 7.10542736e-15,21.0789474 L7.10542736e-15,35.1315789 C7.10542736e-15,36.4244211 1.04926316,37.4736842 2.34210526,37.4736842 L4.68421053,37.4736842 L4.68421053,81.9736842 C4.68421053,85.8475263 7.83668421,89 11.7105263,89 L77.2894737,89 C81.1633158,89 84.3157895,85.8475263 84.3157895,81.9736842 L84.3157895,37.4736842 L86.6578947,37.4736842 C87.9507368,37.4736842 89,36.4244211 89,35.1315789 L89,21.0789474 C89,19.7861053 87.9507368,18.7368421 86.6578947,18.7368421 L86.6578947,18.7368421 Z M52.1212105,11.3076842 C55.7842632,7.09657895 59.8361053,4.68421053 63.2368421,4.68421053 C67.1106842,4.68421053 70.2631579,7.83668421 70.2631579,11.7105263 C70.2631579,15.5843684 67.1106842,18.7368421 63.2368421,18.7368421 L47.4135789,18.7368421 C48.2239474,16.6664211 49.8634211,13.9027368 52.1212105,11.3076842 L52.1212105,11.3076842 Z M51.5263158,84.3157895 L37.4736842,84.3157895 L37.4736842,23.4210526 L51.5263158,23.4210526 L51.5263158,84.3157895 L51.5263158,84.3157895 Z M18.7368421,11.7105263 C18.7368421,7.83668421 21.8893158,4.68421053 25.7631579,4.68421053 C29.1638947,4.68421053 33.2157368,7.09657895 36.8787895,11.3076842 C39.1365789,13.9027368 40.7760526,16.6664211 41.5864211,18.7368421 L25.7631579,18.7368421 C21.8893158,18.7368421 18.7368421,15.5843684 18.7368421,11.7105263 L18.7368421,11.7105263 Z M4.68421053,23.4210526 L32.7894737,23.4210526 L32.7894737,32.7894737 L4.68421053,32.7894737 L4.68421053,23.4210526 L4.68421053,23.4210526 Z M9.36842105,81.9736842 L9.36842105,37.4736842 L32.7894737,37.4736842 L32.7894737,84.3157895 L11.7105263,84.3157895 C10.4176842,84.3157895 9.36842105,83.2665263 9.36842105,81.9736842 L9.36842105,81.9736842 Z M79.6315789,81.9736842 C79.6315789,83.2665263 78.5823158,84.3157895 77.2894737,84.3157895 L56.2105263,84.3157895 L56.2105263,37.4736842 L79.6315789,37.4736842 L79.6315789,81.9736842 L79.6315789,81.9736842 Z M84.3157895,32.7894737 L56.2105263,32.7894737 L56.2105263,23.4210526 L84.3157895,23.4210526 L84.3157895,32.7894737 L84.3157895,32.7894737 Z" id="Shape"></path>
                </g>
            </g>
        </g>
    </g>
</svg>