<?xml version="1.0" encoding="UTF-8" standalone="no"?>
<svg width="83px" height="87px" viewBox="0 0 83 87" version="1.1" xmlns="http://www.w3.org/2000/svg" xmlns:xlink="http://www.w3.org/1999/xlink" xmlns:sketch="http://www.bohemiancoding.com/sketch/ns">
    <!-- Generator: Sketch 3.4.2 (15855) - http://www.bohemiancoding.com/sketch -->
    <title>paperclip</title>
    <desc>Created with Sketch.</desc>
    <defs></defs>
    <g id="Page-1" stroke="none" stroke-width="1" fill="none" fill-rule="evenodd" sketch:type="MSPage">
        <g id="Desktop-Copy" sketch:type="MSArtboardGroup" transform="translate(-919.000000, -1185.000000)" fill="#F3F3F0">
            <g id="links" sketch:type="MSLayerGroup" transform="translate(0.000000, 1122.000000)">
                <g id="paperclip" transform="translate(963.000000, 107.500000) rotate(47.000000) translate(-963.000000, -107.500000) translate(940.000000, 57.000000)" sketch:type="MSShapeGroup">
                    <path d="M23,101 C10.3193333,101 -1.13686838e-13,90.80405 -1.13686838e-13,78.275 L-1.13686838e-13,17.675 C-1.13686838e-13,7.9285 8.02444444,1.13686838e-13 17.8888889,1.13686838e-13 C27.7533333,1.13686838e-13 35.7777778,7.9285 35.7777778,17.675 L35.7777778,73.225 C35.7777778,80.1839 30.0431111,85.85 23,85.85 C15.9568889,85.85 10.2222222,80.1839 10.2222222,73.225 L10.2222222,42.925 C10.2222222,41.5312 11.3671111,40.4 12.7777778,40.4 C14.1884444,40.4 15.3333333,41.5312 15.3333333,42.925 L15.3333333,73.225 C15.3333333,77.40135 18.7731111,80.8 23,80.8 C27.2268889,80.8 30.6666667,77.40135 30.6666667,73.225 L30.6666667,17.675 C30.6666667,10.7161 24.932,5.05 17.8888889,5.05 C10.8457778,5.05 5.11111111,10.7161 5.11111111,17.675 L5.11111111,78.275 C5.11111111,88.0215 13.1355556,95.95 23,95.95 C32.8644444,95.95 40.8888889,88.0215 40.8888889,78.275 L40.8888889,42.925 C40.8888889,41.5312 42.0337778,40.4 43.4444444,40.4 C44.8551111,40.4 46,41.5312 46,42.925 L46,78.275 C46,90.80405 35.6806667,101 23,101 L23,101 Z" id="Shape"></path>
                </g>
            </g>
        </g>
    </g>
</svg>