<?xml version="1.0" encoding="UTF-8" standalone="no"?>
<svg width="25px" height="31px" viewBox="0 0 25 31" version="1.1" xmlns="http://www.w3.org/2000/svg" xmlns:xlink="http://www.w3.org/1999/xlink">
    <!-- Generator: Sketch 3.8.3 (29802) - http://www.bohemiancoding.com/sketch -->
    <title>icon-periscope</title>
    <desc>Created with Sketch.</desc>
    <defs></defs>
    <g id="Page-1" stroke="none" stroke-width="1" fill="none" fill-rule="evenodd">
        <g id="Desktop-HD" transform="translate(-485.000000, -2154.000000)" fill="#FFFFFF">
            <g id="Group-7" transform="translate(481.000000, 1766.000000)">
                <path d="M28.0471449,400.023572 C28.0471449,393.383118 22.6639624,388 16.0235724,388 C9.38311788,388 4,393.383118 4,400.023572 C4,407.691132 13.0514686,418.43 16.0235724,418.43 C18.9956762,418.43 28.0471449,407.691132 28.0471449,400.023572 Z M16.0235724,392.719079 C15.4668718,392.719079 14.9249519,392.781946 14.4042028,392.900579 C15.261425,393.424298 15.833681,394.368656 15.833681,395.446751 C15.833681,397.093617 14.4986322,398.428601 12.8518309,398.428601 C11.405571,398.428601 10.2001285,397.398914 9.92787771,396.032755 C9.18993468,397.169521 8.76103313,398.525418 8.76103313,399.981683 C8.76103313,403.992638 12.0125522,407.244222 16.0235724,407.244222 C20.0345926,407.244222 23.2861117,403.992638 23.2861117,399.981683 C23.2861117,395.970663 20.0345926,392.719079 16.0235724,392.719079 Z" id="icon-periscope"></path>
            </g>
        </g>
    </g>
</svg>