<?xml version="1.0" encoding="utf-8"?>
<!-- Generator: Adobe Illustrator 16.0.0, SVG Export Plug-In . SVG Version: 6.00 Build 0)  -->
<!DOCTYPE svg PUBLIC "-//W3C//DTD SVG 1.1//EN" "http://www.w3.org/Graphics/SVG/1.1/DTD/svg11.dtd">
<svg version="1.1" id="Layer_1" xmlns="http://www.w3.org/2000/svg" xmlns:xlink="http://www.w3.org/1999/xlink" x="0px" y="0px"
	 width="23px" height="198px" viewBox="0 0 23 198" enable-background="new 0 0 23 198" xml:space="preserve">
<g opacity="0.8">
	<circle fill="#00A651" cx="11.5" cy="36.5" r="11.5"/>
	<path opacity="0.2" d="M11.5,25C5.148,25,0,30.149,0,36.5S5.148,48,11.5,48S23,42.851,23,36.5S17.852,25,11.5,25z M11.458,47.083
		c-5.821,0-10.542-4.72-10.542-10.542S5.637,26,11.458,26C17.28,26,22,30.72,22,36.542S17.28,47.083,11.458,47.083z"/>
	<polygon fill="#FFF200" points="11.5,44 2,37 11.5,29 21,37 	"/>
	<circle fill="#00A1DE" cx="11.5" cy="36.5" r="3.5"/>
</g>
<g opacity="0.8">
	<circle fill="#FFFFFF" cx="11.464" cy="111.5" r="11.5"/>
	<g>
		<path fill="#00ADEE" d="M1.98,105h18.967c-0.505-0.735-1.099-1.401-1.757-2H3.737C3.08,103.599,2.485,104.265,1.98,105z"/>
		<path fill="#00ADEE" d="M0.072,110h22.783c-0.09-0.687-0.232-1.356-0.438-2H0.51C0.305,108.644,0.162,109.313,0.072,110z"/>
		<path fill="#00ADEE" d="M0.51,115h21.908c0.205-0.644,0.348-1.313,0.438-2H0.072C0.162,113.687,0.305,114.356,0.51,115z"/>
		<path fill="#00ADEE" d="M1.98,118c0.505,0.735,1.1,1.401,1.757,2H19.19c0.658-0.599,1.252-1.265,1.757-2H1.98z"/>
	</g>
	<path opacity="0.2" d="M11.464,100c-6.352,0-11.5,5.148-11.5,11.5s5.148,11.5,11.5,11.5s11.5-5.148,11.5-11.5
		S17.815,100,11.464,100z M11.422,122.084c-5.821,0-10.542-4.721-10.542-10.542S5.601,101,11.422,101
		c5.822,0,10.542,4.721,10.542,10.542S17.244,122.084,11.422,122.084z"/>
</g>
<g opacity="0.8">
	<path fill="#00ADEE" d="M22.453,8C20.972,3.361,16.63,0,11.5,0S2.027,3.361,0.547,8H22.453z"/>
	<path fill="#00ADEE" d="M0.547,15c1.48,4.639,5.822,8,10.953,8c5.129,0,9.472-3.361,10.953-8H0.547z"/>
	<path fill="#FFFFFF" d="M0,11.5c0,1.221,0.193,2.396,0.547,3.5h21.906C22.807,13.896,23,12.721,23,11.5S22.807,9.104,22.453,8
		H0.547C0.193,9.104,0,10.279,0,11.5z"/>
	<path opacity="0.2" d="M11.5,0C5.148,0,0,5.149,0,11.5S5.148,23,11.5,23S23,17.851,23,11.5S17.852,0,11.5,0z M11.458,22.083
		c-5.821,0-10.542-4.72-10.542-10.542S5.637,1,11.458,1C17.28,1,22,5.72,22,11.542S17.28,22.083,11.458,22.083z"/>
</g>
<g opacity="0.8">
	<path fill="#ED1C24" d="M0.051,62c0.264,6.117,5.293,11,11.475,11C17.708,73,22.736,68.117,23,62H0.051z"/>
	<path fill="#303188" d="M12,50.025C11.833,50.018,11.669,50,11.5,50C5.148,50,0,55.149,0,61.5c0,0.169,0.018,0.333,0.025,0.5H12
		V50.025z"/>
	<path fill="#FFFFFF" d="M12,50.025V62h10.975C22.982,61.833,23,61.669,23,61.5C23,55.318,18.118,50.289,12,50.025z"/>
	<path opacity="0.2" d="M11.5,50C5.148,50,0,55.149,0,61.5S5.148,73,11.5,73S23,67.851,23,61.5S17.852,50,11.5,50z M11.458,72.083
		c-5.821,0-10.542-4.72-10.542-10.542S5.637,51,11.458,51C17.28,51,22,55.72,22,61.542S17.28,72.083,11.458,72.083z"/>
</g>
<g opacity="0.8">
	<path fill="#ED1C24" d="M22.076,82c-1.752-4.113-5.824-7-10.576-7s-8.824,2.887-10.576,7H22.076z"/>
	<path fill="#4042B6" d="M0.924,91c1.751,4.113,5.823,7,10.576,7c4.752,0,8.823-2.887,10.576-7H0.924z"/>
	<path fill="#FFFFFF" d="M0,86.5c0,1.597,0.326,3.118,0.915,4.5h21.17C22.674,89.618,23,88.097,23,86.5s-0.326-3.118-0.915-4.5
		H0.915C0.326,83.382,0,84.903,0,86.5z"/>
	<path opacity="0.2" d="M11.5,75C5.148,75,0,80.149,0,86.5S5.148,98,11.5,98S23,92.851,23,86.5S17.852,75,11.5,75z M11.458,97.083
		c-5.821,0-10.542-4.72-10.542-10.542S5.637,76,11.458,76C17.28,76,22,80.72,22,86.542S17.28,97.083,11.458,97.083z"/>
</g>
<g opacity="0.8">
	<path fill="#ED1C24" d="M16,147.076c4.113-1.752,7-5.824,7-10.576s-2.887-8.824-7-10.576V147.076z"/>
	<path fill="#ED1C24" d="M7,125.924c-4.113,1.751-7,5.823-7,10.576c0,4.752,2.887,8.823,7,10.576V125.924z"/>
	<path fill="#FFFFFF" d="M11.5,125c-1.598,0-3.117,0.326-4.5,0.915v21.17C8.383,147.674,9.902,148,11.5,148s3.117-0.326,4.5-0.915
		v-21.17C14.617,125.326,13.098,125,11.5,125z"/>
	<path opacity="0.2" d="M23,136.5c0-6.352-5.148-11.5-11.5-11.5S0,130.148,0,136.5S5.148,148,11.5,148S23,142.852,23,136.5z
		 M0.916,136.458c0-5.821,4.721-10.542,10.542-10.542S22,130.637,22,136.458C22,142.28,17.279,147,11.458,147
		S0.916,142.28,0.916,136.458z"/>
</g>
<g opacity="0.8">
	<path fill="#FFF200" d="M0,161.5c0,0.169,0.018,0.333,0.025,0.5h22.949c0.008-0.167,0.025-0.331,0.025-0.5
		c0-6.352-5.148-11.5-11.5-11.5S0,155.148,0,161.5z"/>
	<path fill="#4042B6" d="M2.017,168h18.967c1.182-1.72,1.896-3.779,1.991-6H0.025C0.121,164.221,0.835,166.28,2.017,168z"/>
	<path fill="#ED1C24" d="M20.983,168H2.017c2.072,3.019,5.545,5,9.483,5S18.911,171.019,20.983,168z"/>
	<path opacity="0.2" d="M23,161.5c0-6.352-5.148-11.5-11.5-11.5S0,155.148,0,161.5S5.148,173,11.5,173S23,167.852,23,161.5z
		 M0.916,161.458c0-5.821,4.721-10.542,10.542-10.542S22,155.637,22,161.458C22,167.28,17.279,172,11.458,172
		S0.916,167.28,0.916,161.458z"/>
</g>
<g opacity="0.8">
	<path fill="#ED1C24" d="M0.915,182h21.17c-1.751-4.114-5.831-7-10.585-7S2.666,177.886,0.915,182z"/>
	<path fill="#FFF200" d="M0,186.5c0,1.221,0.193,2.396,0.547,3.5h21.907c0.353-1.104,0.546-2.279,0.546-3.5
		c0-1.598-0.326-3.117-0.915-4.5H0.915C0.326,183.383,0,184.902,0,186.5z"/>
	<path fill="#00A651" d="M22.454,190H0.547c1.48,4.639,5.823,8,10.953,8C16.631,198,20.973,194.639,22.454,190z"/>
	<path opacity="0.2" d="M23,186.5c0-6.352-5.148-11.5-11.5-11.5S0,180.148,0,186.5S5.148,198,11.5,198S23,192.852,23,186.5z
		 M0.916,186.458c0-5.821,4.721-10.542,10.542-10.542S22,180.637,22,186.458C22,192.28,17.279,197,11.458,197
		S0.916,192.28,0.916,186.458z"/>
</g>
</svg>
